<svg width="20" height="21" viewBox="0 0 20 21" fill="none" xmlns="http://www.w3.org/2000/svg">
<path d="M9.49527 18.3604L9.49528 18.3604L9.49121 18.3582C7.88933 17.4844 5.09953 16.5681 3.33053 16.336C3.33008 16.3359 3.32962 16.3359 3.32917 16.3358L3.09029 16.3029L3.09029 16.3028L3.08387 16.302C2.20405 16.1946 1.45835 15.3495 1.45835 14.4489V4.38228C1.45835 3.83667 1.67059 3.34989 2.05584 2.99843C2.44401 2.64431 2.9451 2.47433 3.47944 2.52228L3.47944 2.52231L3.48459 2.52271C5.2501 2.65914 7.95185 3.55409 9.46185 4.50186L9.46173 4.50204L9.47341 4.50886L9.67341 4.62552L9.6734 4.62554L9.67663 4.62738C9.79464 4.69482 9.92257 4.70656 9.99346 4.70821C10.0612 4.70979 10.1868 4.70473 10.303 4.64663L10.3207 4.63777L10.3375 4.62728L10.4709 4.54395L10.4715 4.54352C11.9778 3.5981 14.6681 2.68934 16.4432 2.53228H16.4433H16.4435H16.4437H16.4439H16.4441H16.4443H16.4445H16.4447H16.4449H16.4451H16.4453H16.4455H16.4457H16.446H16.4462H16.4464H16.4466H16.4468H16.447H16.4472H16.4474H16.4476H16.4479H16.4481H16.4483H16.4485H16.4487H16.4489H16.4492H16.4494H16.4496H16.4498H16.45H16.4502H16.4505H16.4507H16.4509H16.4511H16.4514H16.4516H16.4518H16.452H16.4522H16.4525H16.4527H16.4529H16.4531H16.4534H16.4536H16.4538H16.454H16.4543H16.4545H16.4547H16.455H16.4552H16.4554H16.4556H16.4559H16.4561H16.4563H16.4566H16.4568H16.457H16.4573H16.4575H16.4577H16.458H16.4582H16.4584H16.4587H16.4589H16.4591H16.4594H16.4596H16.4598H16.4601H16.4603H16.4605H16.4608H16.461H16.4612H16.4615H16.4617H16.462H16.4622H16.4624H16.4627H16.4629H16.4631H16.4634H16.4636H16.4639H16.4641H16.4643H16.4646H16.4648H16.4651H16.4653H16.4655H16.4658H16.466H16.4663H16.4665H16.4667H16.467H16.4672H16.4675H16.4677H16.468H16.4682H16.4684H16.4687H16.4689H16.4692H16.4694H16.4697H16.4699H16.4701H16.4704H16.4706H16.4709H16.4711H16.4714H16.4716H16.4718H16.4721H16.4723H16.4726H16.4728H16.4731H16.4733H16.4736H16.4738H16.474H16.4743H16.4745H16.4748H16.475H16.4753H16.4755H16.4758H16.476H16.4762H16.4765H16.4767H16.477H16.4772H16.4775H16.4777H16.4779H16.4782H16.4784H16.4787H16.4789H16.4792H16.4794H16.4797H16.4799H16.4801H16.4804H16.4806H16.4809H16.4811H16.4814H16.4816H16.4818H16.4821H16.4823H16.4826H16.4828H16.483H16.4833H16.4835H16.4838H16.484H16.4843H16.4845H16.4847H16.485H16.4852H16.4855H16.4857H16.4859H16.4862H16.4864H16.4867H16.4869H16.4871H16.4874H16.4876H16.4878H16.4881H16.4883H16.4886H16.4888H16.489H16.4893H16.4895H16.4897H16.49H16.4902H16.4904H16.4907H16.4909H16.4912H16.4914H16.4916H16.4919H16.4921H16.4923H16.4926H16.4928H16.493H16.4932H16.4935H16.4937H16.4939H16.4942H16.4944H16.4946H16.4949H16.4951H16.4953H16.4955H16.4958H16.496H16.4962H16.4964H16.4967H16.4969H16.4971H16.4973H16.4976H16.4978H16.498H16.4982H16.4985H16.4987H16.4989H16.4991H16.4994H16.4996H16.4998H16.5H16.5002H16.5004H16.5007H16.5009H16.5011H16.5013H16.5015H16.5017H16.502H16.5022H16.5024H16.5026H16.5028H16.503H16.5032H16.5035H16.5037H16.5039H16.5041H16.5043H16.5045H16.5047H16.5049H16.5051H16.5053H16.5055H16.5057H16.5059H16.5061H16.5063H16.5066H16.5068H16.507H16.5072H16.5074H16.5076H16.5078H16.508H16.5081H16.5083H16.5085H16.5087H16.5089H16.5091H16.5093H16.5095H16.5097H16.5099H16.5101H16.5103H16.5105H16.5107H16.5108H16.511H16.5112H16.5114H16.5116H16.5118H16.512H16.5121H16.5123H16.5125H16.5127H16.5129H16.513H16.5132H16.5134H16.5136H16.5138H16.5139H16.5141H16.5143H16.5144H16.5146H16.5148H16.515H16.5151H16.5153H16.5155H16.5156H16.5158H16.516H16.5161H16.5163H16.5165H16.5166H16.5168H16.5169H16.5171H16.5173H16.5174H16.5176H16.5177H16.5179H16.518H16.5182H16.5183H16.5185H16.5187H16.5188H16.5189H16.5191H16.5192H16.5194H16.5195H16.5197H16.5198H16.52H16.5201H16.5202H16.5204H16.5205H16.5207H16.5208H16.5209H16.5211H16.5212H16.5213H16.5215H16.5216H16.5217H16.5219H16.522H16.5221H16.5222H16.5224H16.5225H16.5226H16.5227H16.5228H16.523H16.5231H16.5232H16.5233H16.5234H16.5235H16.5237H16.5238H16.5239H16.524H16.5241H16.5242H16.5243H16.5244H16.5245H16.5246H16.5247H16.5248H16.5249H16.525H16.545L16.5648 2.53038C17.0497 2.48388 17.5583 2.65681 17.9415 3.01261L17.9415 3.01262L17.9442 3.0151C18.3294 3.36655 18.5417 3.85333 18.5417 4.39895V14.4573C18.5417 15.3644 17.7978 16.2025 16.9082 16.3103L16.6332 16.3436L16.6332 16.3436L16.6292 16.3441C14.8602 16.576 12.0603 17.501 10.4904 18.3675L10.4903 18.3674L10.4817 18.3724C10.3621 18.4421 10.1983 18.4823 10 18.4823C9.81159 18.4823 9.63344 18.4378 9.49527 18.3604ZM2.33574 3.30791L2.33574 3.30791L2.33458 3.30898C2.03499 3.5846 1.87502 3.97344 1.87502 4.38228V14.4489C1.87502 14.8133 2.03051 15.1495 2.25052 15.4C2.47019 15.65 2.78115 15.8454 3.13377 15.8949L3.13662 15.8953L3.38662 15.9286C5.2107 16.1718 8.03682 17.0974 9.65896 17.9815L9.67374 17.9895L9.68913 17.9964C9.77666 18.0353 9.86783 18.0541 9.9419 18.0615C9.99741 18.067 10.1196 18.0749 10.2381 18.0275L10.2625 18.0177L10.2856 18.0049C11.9052 17.1061 14.7445 16.1729 16.5768 15.9291L16.857 15.8961L16.8591 15.8958C17.2174 15.8518 17.5308 15.6534 17.7503 15.4022C17.9701 15.1506 18.125 14.8126 18.125 14.4489V4.39062C18.125 3.96996 17.9629 3.59439 17.6719 3.31504L17.6658 3.30916L17.6594 3.30353C17.3578 3.03673 16.9779 2.91318 16.5729 2.93228H16.5728H16.5726H16.5724H16.5723H16.5721H16.5719H16.5717H16.5716H16.5714H16.5712H16.571H16.5708H16.5707H16.5705H16.5703H16.5701H16.5699H16.5697H16.5696H16.5694H16.5692H16.569H16.5688H16.5686H16.5684H16.5682H16.568H16.5678H16.5677H16.5675H16.5673H16.5671H16.5669H16.5667H16.5665H16.5663H16.5661H16.5659H16.5657H16.5655H16.5653H16.5651H16.5649H16.5647H16.5645H16.5643H16.5641H16.5639H16.5637H16.5635H16.5632H16.563H16.5628H16.5626H16.5624H16.5622H16.562H16.5618H16.5616H16.5614H16.5612H16.5609H16.5607H16.5605H16.5603H16.5601H16.5599H16.5597H16.5594H16.5592H16.559H16.5588H16.5586H16.5583H16.5581H16.5579H16.5577H16.5575H16.5572H16.557H16.5568H16.5566H16.5564H16.5561H16.5559H16.5557H16.5555H16.5552H16.555H16.5548H16.5546H16.5543H16.5541H16.5539H16.5536H16.5534H16.5532H16.553H16.5527H16.5525H16.5523H16.552H16.5518H16.5516H16.5513H16.5511H16.5509H16.5507H16.5504H16.5502H16.55H16.5497H16.5495H16.5493H16.549H16.5488H16.5485H16.5483H16.5481H16.5478H16.5476H16.5474H16.5471H16.5469H16.5467H16.5464H16.5462H16.5459H16.5457H16.5455H16.5452H16.545H16.5448H16.5445H16.5443H16.544H16.5438H16.5436H16.5433H16.5431H16.5428H16.5426H16.5423H16.5421H16.5419H16.5416H16.5414H16.5411H16.5409H16.5407H16.5404H16.5402H16.5399H16.5397H16.5394H16.5392H16.539H16.5387H16.5385H16.5382H16.538H16.5377H16.5375H16.5373H16.537H16.5368H16.5365H16.5363H16.536H16.5358H16.5356H16.5353H16.5351H16.5348H16.5346H16.5343H16.5341H16.5338H16.5336H16.5334H16.5331H16.5329H16.5326H16.5324H16.5321H16.5319H16.5316H16.5314H16.5312H16.5309H16.5307H16.5304H16.5302H16.5299H16.5297H16.5295H16.5292H16.529H16.5287H16.5285H16.5282H16.528H16.5277H16.5275H16.5273H16.527H16.5268H16.5265H16.5263H16.526H16.5258H16.5256H16.5253H16.5251H16.5248H16.5246H16.5244H16.5241H16.5239H16.5236H16.5234H16.5232H16.5229H16.5227H16.5224H16.5222H16.522H16.5217H16.5215H16.5212H16.521H16.5208H16.5205H16.5203H16.5201H16.5198H16.5196H16.5193H16.5191H16.5189H16.5186H16.5184H16.5182H16.5179H16.5177H16.5175H16.5172H16.517H16.5168H16.5165H16.5163H16.5161H16.5158H16.5156H16.5154H16.5151H16.5149H16.5147H16.5144H16.5142H16.514H16.5137H16.5135H16.5133H16.5131H16.5128H16.5126H16.5124H16.5122H16.5119H16.5117H16.5115H16.5112H16.511H16.5108H16.5106H16.5104H16.5101H16.5099H16.5097H16.5095H16.5092H16.509H16.5088H16.5086H16.5084H16.5081H16.5079H16.5077H16.5075H16.5073H16.5071H16.5068H16.5066H16.5064H16.5062H16.506H16.5058H16.5056H16.5053H16.5051H16.5049H16.5047H16.5045H16.5043H16.5041H16.5039H16.5037H16.5035H16.5033H16.503H16.5028H16.5026H16.5024H16.5022H16.502H16.5018H16.5016H16.5014H16.5012H16.501H16.5008H16.5006H16.5004H16.5002H16.5H16.4998H16.4996H16.4994H16.4992H16.4991H16.4989H16.4987H16.4985H16.4983H16.4981H16.4979H16.4977H16.4975H16.4973H16.4972H16.497H16.4968H16.4966H16.4964H16.4962H16.4961H16.4959H16.4957H16.4955H16.4953H16.4952H16.495H16.4948H16.4946H16.4944H16.4943H16.4941H16.4939H16.4938H16.4936H16.4934H16.4932H16.4931H16.4929H16.4927H16.4926H16.4924H16.4922H16.4921H16.4919H16.4918H16.4916H16.4914H16.4913H16.4911H16.491H16.4908H16.4906H16.4905H16.4903H16.4902H16.49H16.4899H16.4897H16.4896H16.4894H16.4893H16.4891H16.489H16.4888H16.4887H16.4886H16.4884H16.4883H16.4881H16.488H16.4879H16.4877H16.4876H16.4874H16.4873H16.4872H16.487H16.4869H16.4868H16.4866H16.4865H16.4864H16.4863H16.4861H16.486H16.4859H16.4858H16.4857H16.4855H16.4854H16.4853H16.4852H16.4851H16.4849H16.4848H16.4847H16.4846H16.4845H16.4844H16.4843H16.4842H16.4841H16.484H16.4839H16.4838H16.4837H16.4836H16.4835H16.4834H16.4648L16.4464 2.93392C15.606 3.00872 14.5323 3.26907 13.4995 3.61653C12.4663 3.96409 11.4416 4.40973 10.7042 4.87062L10.6965 4.87544L10.689 4.8806L10.5648 4.96596C10.2383 5.16307 9.76378 5.15819 9.46192 4.97024L9.46201 4.97009L9.45163 4.96404L9.25563 4.84971C8.50683 4.3906 7.47837 3.94832 6.43811 3.60438C5.3964 3.25997 4.31199 3.00398 3.45059 2.93366L3.43367 2.93228H3.41669H3.41649H3.4163H3.4161H3.41591H3.41571H3.41551H3.41532H3.41512H3.41493H3.41473H3.41454H3.41434H3.41415H3.41395H3.41376H3.41356H3.41337H3.41317H3.41298H3.41278H3.41259H3.41239H3.41219H3.412H3.4118H3.41161H3.41141H3.41122H3.41102H3.41083H3.41063H3.41044H3.41024H3.41005H3.40985H3.40966H3.40946H3.40926H3.40907H3.40887H3.40868H3.40848H3.40829H3.40809H3.4079H3.4077H3.40751H3.40731H3.40712H3.40692H3.40673H3.40653H3.40634H3.40614H3.40594H3.40575H3.40555H3.40536H3.40516H3.40497H3.40477H3.40458H3.40438H3.40419H3.40399H3.4038H3.4036H3.40341H3.40321H3.40301H3.40282H3.40262H3.40243H3.40223H3.40204H3.40184H3.40165H3.40145H3.40126H3.40106H3.40087H3.40067H3.40048H3.40028H3.40009H3.39989H3.39969H3.3995H3.3993H3.39911H3.39891H3.39872H3.39852H3.39833H3.39813H3.39794H3.39774H3.39755H3.39735H3.39716H3.39696H3.39676H3.39657H3.39637H3.39618H3.39598H3.39579H3.39559H3.3954H3.3952H3.39501H3.39481H3.39462H3.39442H3.39423H3.39403H3.39384H3.39364H3.39344H3.39325H3.39305H3.39286H3.39266H3.39247H3.39227H3.39208H3.39188H3.39169H3.39149H3.3913H3.3911H3.39091H3.39071H3.39051H3.39032H3.39012H3.38993H3.38973H3.38954H3.38934H3.38915H3.38895H3.38876H3.38856H3.38837H3.38817H3.38798H3.38778H3.38759H3.38739H3.38719H3.387H3.3868H3.38661H3.38641H3.38622H3.38602H3.38583H3.38563H3.38544H3.38524H3.38505H3.38485H3.38466H3.38446H3.38426H3.38407H3.38387H3.38368H3.38348H3.38329H3.38309H3.3829H3.3827H3.38251H3.38231H3.38212H3.38192H3.38173H3.38153H3.38134H3.38114H3.38094H3.38075H3.38055H3.38036H3.38016H3.37997H3.37977H3.37958H3.37938H3.37919H3.37899H3.3788H3.3786H3.37841H3.37821H3.37802H3.37782H3.37762H3.37743H3.37723H3.37704H3.37684H3.37665H3.37645H3.37626H3.37606H3.37587H3.37567H3.37548H3.37528H3.37509H3.37489H3.37469H3.3745H3.3743H3.37411H3.37391H3.37372H3.37352H3.37333H3.37313H3.37294H3.37274H3.37255H3.37235H3.37216H3.37196H3.37177H3.37157H3.37137H3.37118H3.37098H3.37079H3.37059H3.3704H3.3702H3.37001H3.36981H3.36962H3.36942H3.36923H3.36903H3.36884H3.36864H3.36844H3.36825H3.36805H3.36786H3.36766H3.36747H3.36727H3.36708H3.36688H3.36669H3.36649H3.3663H3.3661H3.36591H3.36571H3.36551H3.36532H3.36512H3.36493H3.36473H3.36454H3.36434H3.36415H3.36395H3.36376H3.36356H3.36337H3.36317H3.36298H3.36278H3.36259H3.36239H3.36219H3.362H3.3618H3.36161H3.36141H3.36122H3.36102H3.36083H3.36063H3.36044H3.36024H3.36005H3.35985H3.35966H3.35946H3.35927H3.35907H3.35887H3.35868H3.35848H3.35829H3.35809H3.3579H3.3577H3.35751H3.35731H3.35712H3.35692H3.35673H3.35653H3.35634H3.35614H3.35594H3.35575H3.35555H3.35536H3.35516H3.35497H3.35477H3.35458H3.35438H3.35419H3.35399H3.3538H3.3536H3.35341H3.35321H3.35301H3.35282H3.35262H3.35243H3.35223H3.35204H3.35184H3.35165H3.35145H3.35126H3.35106H3.35087H3.35067H3.35048H3.35028H3.35009H3.34989H3.34969H3.3495H3.3493H3.34911H3.34891H3.34872H3.34852H3.34833H3.34813H3.34794H3.34774H3.34755H3.34735H3.34716H3.34696H3.34677H3.34657H3.34637H3.34618H3.34598H3.34579H3.34559H3.3454H3.3452H3.34501H3.34481H3.34462H3.34442H3.34423H3.34403H3.34384H3.34364H3.34344H3.34325H3.34305H3.34286H3.34266H3.34247H3.34227H3.34208H3.34188H3.34169H3.34149H3.3413H3.3411H3.34091H3.34071H3.34052H3.34032H3.34012H3.33993H3.33973H3.33954H3.33934H3.33915H3.33895H3.33876H3.33856H3.33837H3.33817H3.33798H3.33778H3.33759H3.33739H3.33719H3.337H3.3368H3.33661H3.33641H3.33622H3.33602H3.33583H3.33563H3.33544H3.33524H3.33505H3.33485H3.33466H3.33446H3.33426H3.33407H3.33387H3.33368H3.33348H3.33329H3.33309H3.3329H3.3327H3.33251H3.33231H3.33212H3.33192H3.33173H3.33153H3.33134H3.33114H3.33094H3.33075H3.33055H3.33036H3.33016H3.32997H3.32977H3.32958H3.32938H3.32919H3.32899H3.3288H3.3286H3.32841H3.32821H3.32802H3.32782H3.32762H3.32743H3.32723H3.32704H3.32684H3.32665H3.32645H3.32626H3.32606H3.32587H3.32567H3.32548H3.32528H3.32509H3.32489H3.32469H3.3245H3.3243H3.32411H3.32391H3.32372H3.32352H3.32333H3.32313H3.32294H3.32274H3.32255H3.32235H3.32216H3.32196H3.32176H3.32157H3.32137H3.32118H3.32098H3.32079H3.32059H3.3204H3.3202H3.32001H3.31981H3.31962H3.31942H3.31923H3.31903H3.31884H3.31864H3.31844H3.31825H3.31805H3.31786H3.31766H3.31747H3.31727H3.31708H3.31688H3.31669C2.94989 2.93228 2.60697 3.06027 2.33574 3.30791Z" fill="#013D25" stroke="#013D25" strokeWidth="0.833333"/>
<path d="M10 17.7826C9.88845 17.7826 9.79167 17.6858 9.79167 17.5742V5.07422C9.79167 4.96267 9.88845 4.86589 10 4.86589C10.1115 4.86589 10.2083 4.96267 10.2083 5.07422V17.5742C10.2083 17.6905 10.1152 17.7826 10 17.7826Z" fill="#013D25" stroke="#013D25" strokeWidth="0.833333"/>
<path d="M6.45831 7.78255H4.58331C4.47176 7.78255 4.37498 7.68577 4.37498 7.57422C4.37498 7.46267 4.47176 7.36589 4.58331 7.36589H6.45831C6.56986 7.36589 6.66665 7.46267 6.66665 7.57422C6.66665 7.68577 6.56986 7.78255 6.45831 7.78255Z" fill="#013D25" stroke="#013D25" strokeWidth="0.833333"/>
<path d="M7.08331 10.2826H4.58331C4.47176 10.2826 4.37498 10.1858 4.37498 10.0742C4.37498 9.96267 4.47176 9.86589 4.58331 9.86589H7.08331C7.19486 9.86589 7.29165 9.96267 7.29165 10.0742C7.29165 10.1858 7.19486 10.2826 7.08331 10.2826Z" fill="#013D25" stroke="#013D25" strokeWidth="0.833333"/>
</svg>
