<svg width="20" height="21" viewBox="0 0 20 21" fill="none" xmlns="http://www.w3.org/2000/svg">
<path d="M16.8655 15.0081C16.875 14.8915 16.875 14.7698 16.875 14.675V14.668V6.33464C16.875 5.5837 16.8404 4.95549 16.7323 4.44058C16.6232 3.92107 16.4334 3.48671 16.1012 3.15385C15.769 2.82094 15.3348 2.6301 14.8147 2.52031C14.2993 2.4115 13.6699 2.3763 12.9167 2.3763H7.08335C6.33017 2.3763 5.70078 2.4115 5.18532 2.52031C4.66521 2.6301 4.23108 2.82094 3.89884 3.15385C3.56665 3.48671 3.3768 3.92107 3.26776 4.44058C3.15969 4.95549 3.12502 5.5837 3.12502 6.33464V15.5013C3.12502 15.6128 3.02823 15.7096 2.91669 15.7096C2.80514 15.7096 2.70835 15.6128 2.70835 15.5013V6.33464C2.70835 4.51148 2.99223 3.4671 3.60402 2.8553C4.21582 2.24351 5.2602 1.95964 7.08335 1.95964H12.9167C14.7398 1.95964 15.7842 2.24351 16.396 2.8553C17.0078 3.4671 17.2917 4.51148 17.2917 6.33464V14.668C17.2917 14.8021 17.2916 14.9137 17.2843 15.0311C17.2747 15.1465 17.1632 15.2349 17.0645 15.2275L17.0638 15.2274C16.9451 15.2187 16.8586 15.1129 16.8655 15.0081ZM16.8655 15.0081C16.8654 15.009 16.8653 15.01 16.8652 15.0109L16.45 14.9763L16.8656 15.0067C16.8655 15.0072 16.8655 15.0076 16.8655 15.0081Z" fill="#013D25" stroke="#013D25" strokeWidth="0.833333"/>
<path d="M16.875 13.625V13.2083H16.4584H5.29169C4.0949 13.2083 3.12502 14.1782 3.12502 15.375V15.9167C3.12502 17.4135 4.33657 18.625 5.83335 18.625H14.1667C15.6635 18.625 16.875 17.4135 16.875 15.9167V13.625ZM14.1667 19.0417H5.83335C4.11347 19.0417 2.70835 17.6365 2.70835 15.9167V15.375C2.70835 13.9475 3.87105 12.7917 5.29169 12.7917H17.0834C17.1949 12.7917 17.2917 12.8885 17.2917 13V15.9167C17.2917 17.6365 15.8866 19.0417 14.1667 19.0417Z" fill="#013D25" stroke="#013D25" strokeWidth="0.833333"/>
<path d="M13.3334 6.54036H6.66669C6.55514 6.54036 6.45835 6.44358 6.45835 6.33203C6.45835 6.22048 6.55514 6.1237 6.66669 6.1237H13.3334C13.4449 6.1237 13.5417 6.22048 13.5417 6.33203C13.5417 6.44358 13.4449 6.54036 13.3334 6.54036Z" fill="#013D25" stroke="#013D25" strokeWidth="0.833333"/>
<path d="M10.8334 9.45833H6.66669C6.55514 9.45833 6.45835 9.36155 6.45835 9.25C6.45835 9.13845 6.55514 9.04167 6.66669 9.04167H10.8334C10.9449 9.04167 11.0417 9.13845 11.0417 9.25C11.0417 9.36155 10.9449 9.45833 10.8334 9.45833Z" fill="#0B0014" stroke="#0B0014" strokeWidth="0.833333"/>
</svg>
