<svg width="20" height="20" viewBox="0 0 20 20" fill="none" xmlns="http://www.w3.org/2000/svg">
<path d="M10 13.1945C8.23845 13.1945 6.80833 11.7644 6.80833 10.0029C6.80833 8.24132 8.23845 6.8112 10 6.8112C11.7615 6.8112 13.1917 8.24132 13.1917 10.0029C13.1917 11.7644 11.7615 13.1945 10 13.1945ZM10 7.22786C8.46988 7.22786 7.225 8.47275 7.225 10.0029C7.225 11.533 8.46988 12.7779 10 12.7779C11.5301 12.7779 12.775 11.533 12.775 10.0029C12.775 8.47275 11.5301 7.22786 10 7.22786Z" fill="#013D25" stroke="#013D25" strokeWidth="0.833333"/>
<path d="M17.7655 12.2767C15.7899 15.3697 12.951 17.101 10 17.101C7.04049 17.101 4.20167 15.3695 2.22617 12.2767L2.22558 12.2758C1.83638 11.67 1.62919 10.8487 1.62919 10.0042C1.62919 9.15989 1.83628 8.33607 2.22603 7.72555C4.21017 4.63217 7.04919 2.90104 10 2.90104C12.951 2.90104 15.7899 4.63235 17.7655 7.72533L17.7661 7.72625C18.1553 8.33209 18.3625 9.15341 18.3625 9.99792C18.3625 10.8423 18.1554 11.6662 17.7655 12.2767ZM17.7655 12.2767L18.1167 12.501M17.7655 12.2767L18.1167 12.501M18.1167 12.501C19 11.1177 19 8.87604 18.1167 7.50104M18.1167 12.501C16.0834 15.6844 13.125 17.5177 10 17.5177C6.86669 17.5177 3.90836 15.6844 1.87502 12.501L18.1167 7.50104M18.1167 7.50104C16.0834 4.31771 13.125 2.48438 10 2.48438C6.87502 2.48438 3.91669 4.31771 1.87502 7.50104H18.1167ZM10 3.31771C7.13064 3.31771 4.43751 5.04024 2.58227 7.95166C2.21547 8.52414 2.04794 9.27715 2.04794 10.001C2.04794 10.725 2.21549 11.478 2.58232 12.0505C4.43756 14.9619 7.13067 16.6844 10 16.6844C12.8694 16.6844 15.5625 14.9618 17.4178 12.0504C17.7846 11.4779 17.9521 10.7249 17.9521 10.001C17.9521 9.27735 17.7847 8.52456 17.4181 7.95214C15.5628 5.04043 12.8696 3.31771 10 3.31771Z" fill="#013D25" stroke="#013D25" strokeWidth="0.833333"/>
</svg>
