<svg width="20" height="21" viewBox="0 0 20 21" fill="none" xmlns="http://www.w3.org/2000/svg">
<path d="M5.83331 9.04167V7.51786C5.83331 5.30833 6.26541 2.375 9.99998 2.375C13.7345 2.375 14.1666 5.30833 14.1666 7.51786V9.04167" stroke="#013D25" strokeWidth="1.25"/>
<path d="M13.3915 18.832H6.60851C5.16058 18.832 4.43715 18.5556 4.02141 18.0448C3.57096 17.4914 3.33331 16.4976 3.33331 14.6654V12.9987C3.33331 11.1664 3.57096 10.1727 4.02141 9.61928C4.43715 9.10851 5.16058 8.83203 6.60851 8.83203H13.3915C14.8394 8.83203 15.5628 9.10851 15.9786 9.61928C16.429 10.1727 16.6666 11.1664 16.6666 12.9987V14.6654C16.6666 16.4976 16.429 17.4914 15.9786 18.0448C15.5628 18.5556 14.8394 18.832 13.3915 18.832Z" stroke="#013D25" strokeWidth="1.25"/>
<path d="M6.51023 14.2145L6.51029 14.2143L6.49955 14.2102C6.45578 14.1934 6.41788 14.1703 6.36694 14.1261C6.29051 14.0404 6.24998 13.9369 6.24998 13.8324C6.24998 13.7873 6.26069 13.7333 6.28458 13.676L6.28473 13.6761L6.28886 13.6653C6.30534 13.6225 6.32776 13.5853 6.37019 13.536C6.4195 13.4935 6.45672 13.4711 6.49955 13.4546L6.50948 13.4508L6.5192 13.4465C6.65338 13.3869 6.84002 13.4183 6.95633 13.5282C6.99705 13.5752 7.02713 13.6242 7.04871 13.676C7.0726 13.7333 7.08331 13.7873 7.08331 13.8324C7.08331 13.9322 7.04035 14.044 6.96347 14.1292C6.87822 14.2061 6.7664 14.2491 6.66665 14.2491C6.62149 14.2491 6.56758 14.2384 6.51023 14.2145Z" fill="#013D25" stroke="#013D25" strokeWidth="0.833333"/>
<path d="M9.60602 13.7037L9.61244 13.6909L9.61796 13.6777C9.63954 13.6259 9.66963 13.5768 9.71037 13.5299C9.80636 13.439 9.95063 13.3985 10.0693 13.4244L10.0843 13.4277L10.0994 13.4299C10.1097 13.4313 10.1169 13.4333 10.1304 13.4401L10.1568 13.4533L10.1849 13.4627C10.1952 13.4661 10.212 13.4734 10.2356 13.4891L10.2438 13.4946L10.2468 13.4964C10.2492 13.4983 10.2531 13.5015 10.2593 13.5068L10.2883 13.5318C10.2916 13.5346 10.2953 13.5378 10.2992 13.5411C10.3351 13.5847 10.3622 13.63 10.3821 13.6777C10.406 13.735 10.4167 13.7889 10.4167 13.8341C10.4167 13.9359 10.3782 14.0366 10.3056 14.121L10.2233 14.1869C10.2061 14.1973 10.1933 14.2027 10.1849 14.2055L10.1568 14.2148L10.1304 14.2281C10.1169 14.2348 10.1097 14.2368 10.0994 14.2383L10.0994 14.2382L10.0899 14.2398C10.0413 14.2478 10.0126 14.2507 10 14.2507C9.90022 14.2507 9.78834 14.2077 9.70307 14.1308C9.62486 14.0445 9.58335 13.9399 9.58335 13.8341C9.58335 13.7668 9.59392 13.7279 9.60602 13.7037Z" fill="#013D25" stroke="#013D25" strokeWidth="0.833333"/>
<path d="M13.1484 13.4627L13.1765 13.4533L13.203 13.4401C13.2196 13.4318 13.2301 13.4292 13.2352 13.4284L13.2442 13.4269L13.2531 13.425C13.3797 13.3981 13.5217 13.4374 13.6294 13.5364C13.7082 13.6229 13.75 13.7279 13.75 13.8341C13.75 13.8792 13.7393 13.9331 13.7154 13.9905L13.7152 13.9904L13.7111 14.0012C13.6943 14.0449 13.6713 14.0828 13.6271 14.1336C13.5423 14.2088 13.4319 14.2507 13.3333 14.2507C13.229 14.2507 13.1258 14.2104 13.0402 14.1343C13.0012 14.0885 12.9722 14.0408 12.9513 13.9905C12.9274 13.9331 12.9167 13.8792 12.9167 13.8341C12.9167 13.7381 12.9565 13.6309 13.028 13.5469L13.1101 13.4813C13.1273 13.4709 13.1401 13.4655 13.1484 13.4627Z" fill="#013D25" stroke="#013D25" strokeWidth="0.833333"/>
</svg>
