<svg width="20" height="21" viewBox="0 0 20 21" fill="none" xmlns="http://www.w3.org/2000/svg">
<path d="M16.0779 10.8478L16.3726 10.5531L16.0779 10.2585L14.3863 8.56683C14.3073 8.48788 14.3073 8.3517 14.3863 8.27275C14.4652 8.1938 14.6014 8.1938 14.6804 8.27275L14.975 7.97812L14.6804 8.27275L16.8137 10.4061C16.8926 10.485 16.8926 10.6212 16.8137 10.7002L14.6804 12.8335C14.6376 12.8762 14.5871 12.8948 14.5333 12.8948C14.4795 12.8948 14.429 12.8762 14.3863 12.8335C14.3073 12.7545 14.3073 12.6184 14.3863 12.5394L16.0779 10.8478Z" fill="#CB010B" stroke="#CB010B" strokeWidth="0.833333"/>
<path d="M16.6084 10.7552H8.13336C8.02181 10.7552 7.92503 10.6584 7.92503 10.5469C7.92503 10.4353 8.02181 10.3385 8.13336 10.3385H16.6084C16.7199 10.3385 16.8167 10.4353 16.8167 10.5469C16.8167 10.6584 16.7199 10.7552 16.6084 10.7552Z" fill="#CB010B" stroke="#CB010B" strokeWidth="0.833333"/>
<path d="M9.80003 17.3737C7.75386 17.3737 6.04042 16.6602 4.83945 15.4593C3.63848 14.2583 2.92503 12.5449 2.92503 10.4987C2.92503 8.45253 3.63848 6.73909 4.83945 5.53812C6.04042 4.33715 7.75386 3.6237 9.80003 3.6237C9.91158 3.6237 10.0084 3.72048 10.0084 3.83203C10.0084 3.94358 9.91158 4.04036 9.80003 4.04036C7.92137 4.04036 6.30142 4.69764 5.15019 5.84886C3.99897 7.00009 3.3417 8.62004 3.3417 10.4987C3.3417 12.3774 3.99897 13.9973 5.15019 15.1485C6.30142 16.2998 7.92137 16.957 9.80003 16.957C9.91158 16.957 10.0084 17.0538 10.0084 17.1654C10.0084 17.2769 9.91158 17.3737 9.80003 17.3737Z" fill="#CB010B" stroke="#CB010B" strokeWidth="0.833333"/>
</svg>
