<svg width="20" height="21" viewBox="0 0 20 21" fill="none" xmlns="http://www.w3.org/2000/svg">
<path d="M6.17256 18.5599L6.16907 18.5581C5.8353 18.3824 5.62502 18.027 5.62502 17.6434V16.4602V16.0841L5.2509 16.0457C4.08669 15.9262 3.14526 15.4424 2.49404 14.7026C1.84224 13.962 1.45835 12.9388 1.45835 11.7018V6.70182C1.45835 5.36394 1.90575 4.27702 2.65715 3.52562C3.40855 2.77421 4.49547 2.32682 5.83335 2.32682H14.1667C15.5046 2.32682 16.5915 2.77421 17.3429 3.52562C18.0943 4.27702 18.5417 5.36394 18.5417 6.70182V11.7018C18.5417 13.0397 18.0943 14.1266 17.3429 14.878C16.5915 15.6294 15.5046 16.0768 14.1667 16.0768H11.025H10.8988L10.7939 16.1468L7.24665 18.5117C7.24621 18.5119 7.24577 18.5122 7.24533 18.5125C7.07218 18.6256 6.86882 18.6851 6.66669 18.6851C6.50112 18.6851 6.32747 18.6434 6.17256 18.5599ZM6.35231 18.1758L6.56669 17.8185L6.35232 18.1758C6.4888 18.2577 6.74658 18.3275 7.00706 18.1617L7.00711 18.1618L7.01413 18.1571L10.7225 15.6905L10.7228 15.6902C10.7603 15.6653 10.8057 15.6519 10.8417 15.6519H14.175C15.3416 15.6519 16.3395 15.2725 17.0467 14.5652C17.754 13.858 18.1334 12.8601 18.1334 11.6935V6.69348C18.1334 5.52691 17.754 4.52902 17.0467 3.82177C16.3395 3.11452 15.3416 2.73515 14.175 2.73515H5.83335C4.66678 2.73515 3.66889 3.11452 2.96164 3.82177C2.2544 4.52902 1.87502 5.52691 1.87502 6.69348V11.6935C1.87502 12.8601 2.2544 13.858 2.96164 14.5652C3.66889 15.2725 4.66678 15.6519 5.83335 15.6519C5.9449 15.6519 6.04169 15.7487 6.04169 15.8602V17.6352C6.04169 17.9624 6.26323 18.1223 6.35231 18.1758Z" fill="#013D25" stroke="#013D25" strokeWidth="0.833333"/>
<path d="M9.99983 10.1732C9.88828 10.1732 9.79149 10.0764 9.79149 9.96484V9.78988C9.79149 9.05927 10.3141 8.69504 10.5845 8.50914C10.7497 8.39742 10.901 8.27689 11.0081 8.12759C11.1284 7.95994 11.1748 7.78289 11.1748 7.59821C11.1748 6.95146 10.6466 6.42318 9.99983 6.42318C9.35301 6.42318 8.82485 6.95146 8.82485 7.59821C8.82485 7.70975 8.72806 7.80654 8.61652 7.80654C8.50497 7.80654 8.40818 7.70975 8.40818 7.59821C8.40818 6.71998 9.12163 6.00651 9.99983 6.00651C10.878 6.00651 11.5915 6.71998 11.5915 7.59821C11.5915 8.31278 11.0753 8.67764 10.8174 8.85239C10.6452 8.96729 10.4874 9.09059 10.3767 9.24524C10.2518 9.41968 10.2082 9.60228 10.2082 9.78988V9.96484C10.2082 10.0811 10.115 10.1732 9.99983 10.1732Z" fill="#013D25" stroke="#013D25" strokeWidth="0.833333"/>
<path d="M10 12.2513C9.88373 12.2513 9.79167 12.1581 9.79167 12.043C9.79167 11.9314 9.88845 11.8346 10 11.8346C10.1115 11.8346 10.2083 11.9314 10.2083 12.043C10.2083 12.1581 10.1163 12.2513 10 12.2513Z" fill="#013D25" stroke="#013D25" strokeWidth="0.833333"/>
</svg>
