<svg width="20" height="21" viewBox="0 0 20 21" fill="none" xmlns="http://www.w3.org/2000/svg">
<path d="M4.83636 16.8795L4.82869 16.8784L4.82099 16.8775C3.5174 16.7327 2.82716 16.2878 2.43223 15.637C2.0144 14.9484 1.87498 13.9516 1.87498 12.5833V8.41667C1.87498 7.04903 2.01637 6.05033 2.43791 5.35981C2.8368 4.70638 3.53356 4.25907 4.84572 4.11415L4.84574 4.11428L4.85628 4.11285C5.19675 4.06642 5.63426 4.04167 6.24998 4.04167H9.13331C9.24486 4.04167 9.34165 4.13845 9.34165 4.25C9.34165 4.36155 9.24486 4.45833 9.13331 4.45833H6.24998C5.67361 4.45833 5.25607 4.48364 4.90939 4.52786C4.0476 4.62161 3.31943 4.81542 2.85769 5.47446C2.42342 6.09429 2.29165 7.042 2.29165 8.41667V12.5833C2.29165 13.9583 2.42356 14.903 2.8538 15.5213C3.31113 16.1786 4.03151 16.3735 4.88009 16.4716C5.25856 16.5253 5.68093 16.5417 6.24998 16.5417H9.18331C9.29486 16.5417 9.39165 16.6385 9.39165 16.75C9.39165 16.8615 9.29486 16.9583 9.18331 16.9583H6.24998C5.63431 16.9583 5.19902 16.9336 4.83636 16.8795Z" fill="#013D25" stroke="#013D25" strokeWidth="0.833333"/>
<path d="M15.1636 4.12045L15.1713 4.1216L15.179 4.12245C16.4826 4.2673 17.1728 4.71221 17.5677 5.36303C17.9856 6.05159 18.125 7.0484 18.125 8.41667V12.5833C18.125 13.951 17.9836 14.9497 17.5621 15.6402C17.1632 16.2936 16.4664 16.7409 15.1543 16.8859L15.1542 16.8857L15.1437 16.8872C14.8032 16.9336 14.3657 16.9583 13.75 16.9583H12.5167C12.4051 16.9583 12.3083 16.8615 12.3083 16.75C12.3083 16.6385 12.4051 16.5417 12.5167 16.5417H13.75C14.3264 16.5417 14.7439 16.5164 15.0906 16.4721C15.9524 16.3784 16.6806 16.1846 17.1423 15.5255C17.5766 14.9057 17.7083 13.958 17.7083 12.5833V8.41667C17.7083 7.04168 17.5764 6.09699 17.1462 5.47868C16.6888 4.82144 15.9685 4.62645 15.1199 4.52838C14.7414 4.47475 14.319 4.45833 13.75 4.45833H12.5167C12.4051 4.45833 12.3083 4.36155 12.3083 4.25C12.3083 4.13845 12.4051 4.04167 12.5167 4.04167H13.75C14.3657 4.04167 14.801 4.06644 15.1636 4.12045Z" fill="#013D25" stroke="#013D25" strokeWidth="0.833333"/>
<path d="M12.5 19.043C12.3885 19.043 12.2917 18.9462 12.2917 18.8346V2.16797C12.2917 2.05642 12.3885 1.95964 12.5 1.95964C12.6115 1.95964 12.7083 2.05642 12.7083 2.16797V18.8346C12.7083 18.9462 12.6115 19.043 12.5 19.043Z" fill="#013D25" stroke="#013D25" strokeWidth="0.833333"/>
<path d="M5.58333 10.9154C5.53821 10.9154 5.4843 10.9047 5.42692 10.8807C5.37767 10.8602 5.33096 10.832 5.28615 10.7944C5.23748 10.738 5.20824 10.6918 5.19295 10.6551C5.17711 10.6171 5.16667 10.5656 5.16667 10.4987C5.16667 10.3974 5.21097 10.2837 5.29009 10.1979C5.43316 10.0598 5.72134 10.0541 5.87846 10.2C5.9564 10.2855 6 10.3982 6 10.4987C6 10.5438 5.98929 10.5977 5.96538 10.6551C5.94499 10.7041 5.91702 10.7505 5.87969 10.7951C5.83514 10.8324 5.78869 10.8604 5.73974 10.8807C5.68236 10.9047 5.62846 10.9154 5.58333 10.9154Z" fill="#013D25" stroke="#013D25" strokeWidth="0.833333"/>
<path d="M8.91671 10.9154C8.87158 10.9154 8.81768 10.9047 8.7603 10.8807C8.71133 10.8603 8.66488 10.8324 8.62032 10.795C8.58708 10.7554 8.55705 10.71 8.52806 10.6555C8.50874 10.5918 8.50004 10.5398 8.50004 10.4987C8.50004 10.3974 8.54433 10.2837 8.62343 10.198C8.68787 10.1359 8.79277 10.0924 8.91671 10.0924C9.04065 10.0924 9.14555 10.1359 9.20998 10.198C9.28908 10.2837 9.33337 10.3974 9.33337 10.4987C9.33337 10.5438 9.32267 10.5977 9.29876 10.6551C9.27836 10.7041 9.25039 10.7505 9.21306 10.7951C9.16851 10.8324 9.12207 10.8604 9.07312 10.8807C9.01574 10.9047 8.96183 10.9154 8.91671 10.9154Z" fill="#013D25" stroke="#013D25" strokeWidth="0.833333"/>
</svg>
