<svg width="20" height="21" viewBox="0 0 20 21" fill="none" xmlns="http://www.w3.org/2000/svg">
<path d="M7.36837 9.35104L7.41021 9.35252L7.44673 9.34643C7.44809 9.34632 7.45031 9.34616 7.45349 9.34598C7.46305 9.34545 7.4768 9.34505 7.49447 9.34505C7.52992 9.34505 7.57341 9.34667 7.61773 9.35007L7.64324 9.35204L7.6688 9.35086C9.5259 9.26559 10.9819 7.7398 10.9913 5.87007H10.9913V5.86797C10.9913 3.94618 9.42147 2.3763 7.49968 2.3763C5.5779 2.3763 4.00802 3.94618 4.00802 5.86797C4.00802 7.75927 5.48597 9.28483 7.36837 9.35104ZM7.63302 9.76797H7.63287H7.63272H7.63258H7.63243H7.63229H7.63214H7.63199H7.63185H7.6317H7.63156H7.63142H7.63127H7.63113H7.63098H7.63084H7.6307H7.63055H7.63041H7.63027H7.63012H7.62998H7.62984H7.6297H7.62955H7.62941H7.62927H7.62913H7.62899H7.62884H7.6287H7.62856H7.62842H7.62828H7.62814H7.628H7.62786H7.62772H7.62758H7.62744H7.6273H7.62716H7.62702H7.62688H7.62674H7.62661H7.62647H7.62633H7.62619H7.62605H7.62591H7.62578H7.62564H7.6255H7.62536H7.62523H7.62509H7.62495H7.62482H7.62468H7.62454H7.62441H7.62427H7.62413H7.624H7.62386H7.62373H7.62359H7.62346H7.62332H7.62319H7.62305H7.62292H7.62278H7.62265H7.62251H7.62238H7.62224H7.62211H7.62198H7.62184H7.62171H7.62158H7.62144H7.62131H7.62118H7.62104H7.62091H7.62078H7.62065H7.62051H7.62038H7.62025H7.62012H7.61999H7.61985H7.61972H7.61959H7.61946H7.61933H7.6192H7.61907H7.61893H7.6188H7.61867H7.61854H7.61841H7.61828H7.61815H7.61802H7.61789H7.61776H7.61763H7.6175H7.61737H7.61724H7.61711H7.61698H7.61685H7.61672H7.6166H7.61647H7.61634H7.61621H7.61608H7.61595H7.61582H7.6157H7.61557H7.61544H7.61531H7.61518H7.61506H7.61493H7.6148H7.61467H7.61455H7.61442H7.61429H7.61416H7.61404H7.61391H7.61378H7.61366H7.61353H7.6134H7.61328H7.61315H7.61302H7.6129H7.61277H7.61264H7.61252H7.61239H7.61227H7.61214H7.61201H7.61189H7.61176H7.61164H7.61151H7.61139H7.61126H7.61113H7.61101H7.61088H7.61076H7.61063H7.61051H7.61038H7.61026H7.61013H7.61001H7.60989H7.60976H7.60964H7.60951H7.60939H7.60926H7.60914H7.60901H7.60889H7.60877H7.60864H7.60852H7.60839H7.60827H7.60815H7.60802H7.6079H7.60777H7.60765H7.60753H7.6074H7.60728H7.60716H7.60703H7.60691H7.60679H7.60666H7.60654H7.60642H7.60629H7.60617H7.60605H7.60592H7.6058H7.60568H7.60556H7.60543H7.60531H7.60519H7.60506H7.60494H7.60482H7.6047H7.60457H7.60445H7.60433H7.60421H7.60408H7.60396H7.60384H7.60371H7.60359H7.60347H7.60335H7.60323H7.6031H7.60298H7.60286H7.60274H7.60261H7.60249H7.60237H7.60225H7.60212H7.602H7.60188H7.60176H7.60164H7.60151H7.60139H7.60127H7.60115H7.60103H7.6009H7.60078H7.60066H7.60054H7.60041H7.60029H7.60017H7.60005H7.59993H7.5998H7.59968H7.59956H7.59944H7.59932H7.59919H7.59907H7.59895H7.59883H7.59871H7.59858H7.59846H7.59834H7.59822H7.59809H7.59797H7.59796C7.53018 9.75948 7.46003 9.76011 7.39623 9.76702C5.21855 9.68279 3.59135 7.97137 3.59135 5.86797C3.59135 3.71475 5.34647 1.95964 7.49968 1.95964C9.65267 1.95964 11.4076 3.71438 11.408 5.86729C11.4001 7.98469 9.74596 9.69695 7.65113 9.76797H7.65108H7.65103H7.65098H7.65094H7.65089H7.65084H7.65079H7.65074H7.65069H7.65064H7.65059H7.65054H7.6505H7.65045H7.6504H7.65035H7.6503H7.65025H7.6502H7.65015H7.6501H7.65006H7.65001H7.64996H7.64991H7.64986H7.64981H7.64976H7.64971H7.64967H7.64962H7.64957H7.64952H7.64947H7.64942H7.64937H7.64932H7.64928H7.64923H7.64918H7.64913H7.64908H7.64903H7.64898H7.64893H7.64888H7.64884H7.64879H7.64874H7.64869H7.64864H7.64859H7.64854H7.64849H7.64845H7.6484H7.64835H7.6483H7.64825H7.6482H7.64815H7.6481H7.64805H7.64801H7.64796H7.64791H7.64786H7.64781H7.64776H7.64771H7.64766H7.64761H7.64757H7.64752H7.64747H7.64742H7.64737H7.64732H7.64727H7.64722H7.64718H7.64713H7.64708H7.64703H7.64698H7.64693H7.64688H7.64683H7.64678H7.64674H7.64669H7.64664H7.64659H7.64654H7.64649H7.64644H7.64639H7.64635H7.6463H7.64625H7.6462H7.64615H7.6461H7.64605H7.646H7.64596H7.64591H7.64586H7.64581H7.64576H7.64571H7.64566H7.64561H7.64556H7.64552H7.64547H7.64542H7.64537H7.64532H7.64527H7.64522H7.64517H7.64512H7.64508H7.64503H7.64498H7.64493H7.64488H7.64483H7.64478H7.64473H7.64469H7.64464H7.64459H7.64454H7.64449H7.64444H7.64439H7.64434H7.64429H7.64425H7.6442H7.64415H7.6441H7.64405H7.644H7.64395H7.6439H7.64386H7.64381H7.64376H7.64371H7.64366H7.64361H7.64356H7.64351H7.64346H7.64342H7.64337H7.64332H7.64327H7.64322H7.64317H7.64312H7.64307H7.64303H7.64298H7.64293H7.64288H7.64283H7.64278H7.64273H7.64268H7.64263H7.64259H7.64254H7.64249H7.64244H7.64239H7.64234H7.64229H7.64224H7.6422H7.64215H7.6421H7.64205H7.642H7.64195H7.6419H7.64185H7.6418H7.64176H7.64171H7.64166H7.64161H7.64156H7.64151H7.64146H7.64141H7.64137H7.64132H7.64127H7.64122H7.64117H7.64112H7.64107H7.64102H7.64097H7.64093H7.64088H7.64083H7.64078H7.64073H7.64068H7.64063H7.64058H7.64053H7.64049H7.64044H7.64039H7.64034H7.64029H7.64024H7.64019H7.64014H7.6401H7.64005H7.64H7.63995H7.6399H7.63985H7.6398H7.63975H7.63971H7.63966H7.63961H7.63956H7.63951H7.63946H7.63941H7.63936H7.63931H7.63927H7.63922H7.63917H7.63912H7.63907H7.63902H7.63897H7.63892H7.63888H7.63883H7.63878H7.63873H7.63868H7.63863H7.63858H7.63853H7.63848H7.63844H7.63839H7.63834H7.63829H7.63824H7.63819H7.63814H7.63809H7.63804H7.638H7.63795H7.6379H7.63785H7.6378H7.63775H7.6377H7.63765H7.63761H7.63756H7.63751H7.63746H7.63741H7.63736H7.63731H7.63726H7.63721H7.63717H7.63712H7.63707H7.63702H7.63697H7.63692H7.63687H7.63682H7.63678H7.63673H7.63668H7.63663H7.63658H7.63653H7.63648H7.63643H7.63638H7.63634H7.63629H7.63624H7.63619H7.63614H7.63609H7.63604H7.63599H7.63595H7.6359H7.63585H7.6358H7.63575H7.6357H7.63565H7.6356H7.63555H7.63551H7.63546H7.63541H7.63536H7.63531H7.63526H7.63521H7.63516H7.63512H7.63507H7.63502H7.63497H7.63492H7.63487H7.63482H7.63477H7.63472H7.63468H7.63463H7.63458H7.63453H7.63448H7.63443H7.63438H7.63433H7.63428H7.63424H7.63419H7.63414H7.63409H7.63404H7.63399H7.63394H7.63389H7.63385H7.6338H7.63375H7.6337H7.63365H7.6336H7.63355H7.6335H7.63346H7.63341H7.63336H7.63331H7.63326H7.63321H7.63316H7.63311H7.63306H7.63302Z" fill="#013D25" stroke="#013D25" strokeWidth="0.833333"/>
<path d="M16.7997 6.7487C16.7997 8.43764 15.4821 9.80297 13.8005 9.87366L13.7558 9.85873L13.6676 9.86733C13.605 9.87344 13.5335 9.85378 13.477 9.81215C13.4219 9.77159 13.4011 9.7264 13.3977 9.69157C13.3903 9.61565 13.4108 9.55587 13.4381 9.51827C13.4621 9.4852 13.4953 9.46224 13.5438 9.45483C13.6213 9.44893 13.7086 9.4487 13.7997 9.4487H13.8111L13.8225 9.44807C15.26 9.3693 16.383 8.18668 16.383 6.74036C16.383 5.24358 15.1715 4.03203 13.6747 4.03203V4.03191L13.6645 4.03215C13.5629 4.03463 13.4664 3.94566 13.4664 3.83203C13.4664 3.72048 13.5632 3.6237 13.6747 3.6237C15.3946 3.6237 16.7997 5.02882 16.7997 6.7487Z" fill="#013D25" stroke="#013D25" strokeWidth="0.833333"/>
<path d="M1.74967 15.082C1.74967 14.1101 2.28557 13.17 3.35569 12.4538C4.5236 11.6793 6.07622 11.2799 7.64759 11.2799C9.21939 11.2799 10.7675 11.6795 11.9266 12.4535L11.9269 12.4537C12.9908 13.163 13.533 14.0954 13.533 15.0654C13.533 16.0375 12.9969 16.9777 11.9265 17.6939C10.7585 18.4725 9.21011 18.8737 7.64134 18.8737C6.07164 18.8737 4.51558 18.472 3.35687 17.6944L3.35464 17.6929C2.2848 16.9848 1.74967 16.0533 1.74967 15.082ZM3.58522 12.8103C2.71178 13.3926 2.16634 14.1901 2.16634 15.0904C2.16634 15.9845 2.72254 16.7813 3.58516 17.3537C4.70701 18.1057 6.18668 18.4674 7.64134 18.4674C9.09619 18.4674 10.5761 18.1057 11.698 17.3534C12.5711 16.7711 13.1163 15.9738 13.1163 15.0737C13.1163 14.1794 12.5599 13.3824 11.697 12.81C10.5752 12.0624 9.09573 11.7029 7.64134 11.7029C6.18675 11.7029 4.70704 12.0625 3.58522 12.8103Z" fill="#013D25" stroke="#013D25" strokeWidth="0.833333"/>
<path d="M15.458 11.55L15.3681 11.9569C16.0325 12.1037 16.5996 12.3635 17.0537 12.7134L17.0537 12.7134L17.0574 12.7163C17.7423 13.2318 18.108 13.9397 18.108 14.6583C18.108 15.3743 17.7364 16.0841 17.0468 16.6105L17.0468 16.6105L17.0446 16.6122C16.5831 16.9695 15.9939 17.2361 15.3355 17.3663L15.3096 17.3714L15.2989 17.375L15.296 17.375L15.283 17.375C15.1836 17.375 15.1026 17.3094 15.0837 17.2122L15.0836 17.2119C15.0606 17.0942 15.1332 16.9841 15.2468 16.9571C15.82 16.8382 16.3623 16.608 16.7947 16.2725C17.3426 15.8583 17.6913 15.2967 17.6913 14.6583C17.6913 14.0212 17.3437 13.459 16.8021 13.0518C16.3775 12.7244 15.8609 12.5038 15.2767 12.369L15.2767 12.369L15.2744 12.3685C15.164 12.3437 15.0898 12.2316 15.1147 12.1154C15.1401 12.0052 15.2524 11.9315 15.3686 11.957L15.458 11.55ZM15.458 11.55C16.1746 11.7083 16.7996 11.9917 17.308 12.3833L15.183 12.775C14.8496 12.7 14.633 12.3667 14.708 12.025C14.783 11.6917 15.1163 11.475 15.458 11.55Z" fill="#013D25" stroke="#013D25" strokeWidth="0.833333"/>
</svg>
