<svg width="20" height="21" viewBox="0 0 20 21" fill="none" xmlns="http://www.w3.org/2000/svg">
<path d="M12.5 19.043H7.50002C5.28535 19.043 3.80412 18.5682 2.86861 17.6327C1.93309 16.6972 1.45835 15.216 1.45835 13.0013V8.0013C1.45835 5.78663 1.93309 4.30541 2.86861 3.36989C3.80412 2.43437 5.28535 1.95964 7.50002 1.95964H12.5C14.7147 1.95964 16.1959 2.43437 17.1314 3.36989C18.0669 4.30541 18.5417 5.78663 18.5417 8.0013V13.0013C18.5417 15.216 18.0669 16.6972 17.1314 17.6327C16.1959 18.5682 14.7147 19.043 12.5 19.043ZM7.50002 2.3763C5.54979 2.3763 4.10362 2.71886 3.1606 3.66188C2.21758 4.6049 1.87502 6.05107 1.87502 8.0013V13.0013C1.87502 14.9515 2.21758 16.3977 3.1606 17.3407C4.10362 18.2837 5.54979 18.6263 7.50002 18.6263H12.5C14.4503 18.6263 15.8964 18.2837 16.8394 17.3407C17.7825 16.3977 18.125 14.9515 18.125 13.0013V8.0013C18.125 6.05107 17.7825 4.6049 16.8394 3.66188C15.8964 2.71886 14.4503 2.3763 12.5 2.3763H7.50002Z" fill="#013D25" stroke="#013D25" strokeWidth="0.833333"/>
<path d="M12.9833 16.1263C12.8718 16.1263 12.775 16.0295 12.775 15.918V12.668C12.775 12.5564 12.8718 12.4596 12.9833 12.4596C13.0949 12.4596 13.1917 12.5564 13.1917 12.668V15.918C13.1917 16.0295 13.0949 16.1263 12.9833 16.1263Z" fill="#013D25" stroke="#013D25" strokeWidth="0.833333"/>
<path d="M12.9833 6.91536C12.8718 6.91536 12.775 6.81858 12.775 6.70703V5.08203C12.775 4.97048 12.8718 4.8737 12.9833 4.8737C13.0949 4.8737 13.1917 4.97048 13.1917 5.08203V6.70703C13.1917 6.81858 13.0949 6.91536 12.9833 6.91536Z" fill="#013D25" stroke="#013D25" strokeWidth="0.833333"/>
<path d="M12.9833 11.2487C11.6718 11.2487 10.6083 10.1852 10.6083 8.8737C10.6083 7.56215 11.6718 6.4987 12.9833 6.4987C14.2949 6.4987 15.3583 7.56215 15.3583 8.8737C15.3583 10.1844 14.2873 11.2487 12.9833 11.2487ZM12.9833 6.91536C11.9032 6.91536 11.025 7.79358 11.025 8.8737C11.025 9.95382 11.9032 10.832 12.9833 10.832C14.0634 10.832 14.9417 9.95382 14.9417 8.8737C14.9417 7.79212 14.0536 6.91536 12.9833 6.91536Z" fill="#013D25" stroke="#013D25" strokeWidth="0.833333"/>
<path d="M7.01666 16.1263C6.90511 16.1263 6.80833 16.0295 6.80833 15.918V14.293C6.80833 14.1814 6.90511 14.0846 7.01666 14.0846C7.12821 14.0846 7.225 14.1814 7.225 14.293V15.918C7.225 16.0331 7.13293 16.1263 7.01666 16.1263Z" fill="#013D25" stroke="#013D25" strokeWidth="0.833333"/>
<path d="M7.01666 8.54036C6.90511 8.54036 6.80833 8.44358 6.80833 8.33203V5.08203C6.80833 4.97048 6.90511 4.8737 7.01666 4.8737C7.12821 4.8737 7.225 4.97048 7.225 5.08203V8.33203C7.225 8.44721 7.13293 8.54036 7.01666 8.54036Z" fill="#013D25" stroke="#013D25" strokeWidth="0.833333"/>
<path d="M7.01664 14.5026C5.70509 14.5026 4.64164 13.4392 4.64164 12.1276C4.64164 10.8161 5.70509 9.7526 7.01664 9.7526C8.32819 9.7526 9.39164 10.8161 9.39164 12.1276C9.39164 13.4392 8.32819 14.5026 7.01664 14.5026ZM7.01664 10.1693C5.93652 10.1693 5.05831 11.0475 5.05831 12.1276C5.05831 13.2077 5.93652 14.0859 7.01664 14.0859C8.09676 14.0859 8.97498 13.2077 8.97498 12.1276C8.97498 11.049 8.10656 10.1693 7.01664 10.1693Z" fill="#013D25" stroke="#013D25" strokeWidth="0.833333"/>
</svg>
