<svg width="20" height="21" viewBox="0 0 20 21" fill="none" xmlns="http://www.w3.org/2000/svg">
<path d="M8.97509 18.1989L8.97377 18.1977L7.54914 16.7897L8.97509 18.1989ZM8.97509 18.1989C9.54542 18.7576 10.4629 18.7576 11.0333 18.199L11.0346 18.1977M8.97509 18.1989L11.0346 18.1977M11.0346 18.1977L12.4591 16.7897C12.4592 16.7897 12.4592 16.7897 12.4592 16.7896C12.9656 16.2905 13.6609 16.0013 14.375 16.0013H15C16.2586 16.0013 17.2917 14.9863 17.2917 13.7346V4.64297C17.2917 3.3818 16.2574 2.3763 15 2.3763H5C3.74141 2.3763 2.70833 3.39135 2.70833 4.64297M11.0346 18.1977L2.70833 4.64297M2.70833 4.64297V13.7346M2.70833 4.64297V13.7346M2.70833 13.7346C2.70833 14.9958 3.74264 16.0013 5 16.0013M2.70833 13.7346L5 16.0013M5 16.0013H5.63334M5 16.0013H5.63334M5.63334 16.0013C6.34729 16.0013 7.04241 16.2904 7.54876 16.7893L5.63334 16.0013ZM8.67796 18.4983L8.67622 18.4966L7.25294 17.09C7.25266 17.0897 7.25238 17.0894 7.2521 17.0892C6.8209 16.6584 6.23062 16.4263 5.63334 16.4263H5C3.50221 16.4263 2.29167 15.2183 2.29167 13.743V4.64297C2.29167 3.16765 3.50221 1.95964 5 1.95964H15C16.4978 1.95964 17.7083 3.16765 17.7083 4.64297V13.7346C17.7083 15.21 16.4978 16.418 15 16.418H14.3667C13.7647 16.418 13.1774 16.6616 12.7506 17.0781L12.7506 17.0781L12.7488 17.0799L11.3238 18.4883L11.3237 18.4882L11.3193 18.4928C10.9603 18.8585 10.4778 19.043 10 19.043C9.52174 19.043 9.03772 18.8581 8.67796 18.4983Z" fill="#013D25" stroke="#013D25" strokeWidth="0.833333"/>
<path d="M9.94516 7.7524L10.3748 7.76583V7.70525C10.9792 7.54154 11.4165 6.99013 11.4165 6.33594C11.4165 5.55581 10.7799 4.91927 9.99983 4.91927C9.21971 4.91927 8.58315 5.55581 8.58315 6.33594C8.58315 7.09877 9.18302 7.72858 9.94516 7.7524ZM10.0582 8.16927H10.0581H10.058H10.0579H10.0578H10.0577H10.0576H10.0575H10.0574H10.0573H10.0572H10.0571H10.057H10.0569H10.0568H10.0567H10.0566H10.0565H10.0564H10.0563H10.0562H10.0561H10.056H10.0559H10.0558H10.0557H10.0556H10.0555H10.0554H10.0553H10.0552H10.0551H10.0549H10.0548H10.0547H10.0546H10.0545H10.0544H10.0543H10.0542H10.0541H10.054H10.0539H10.0538H10.0537H10.0536H10.0535H10.0534H10.0533H10.0532H10.0531H10.053H10.0528H10.0527H10.0526H10.0525H10.0524H10.0523H10.0522H10.0521H10.052H10.0519H10.0518H10.0517H10.0516H10.0514H10.0513H10.0512H10.0511H10.051H10.0509H10.0508H10.0507H10.0506H10.0505H10.0504H10.0502H10.0501H10.05H10.0499H10.0498H10.0497H10.0496H10.0495H10.0494H10.0493H10.0491H10.049H10.0489H10.0488H10.0487H10.0486H10.0485H10.0484H10.0482H10.0481H10.048H10.0479H10.0478H10.0477H10.0476H10.0475H10.0473H10.0472H10.0471H10.047H10.0469H10.0468H10.0467H10.0465H10.0464H10.0463H10.0462H10.0461H10.046H10.0459H10.0457H10.0456H10.0455H10.0454H10.0453H10.0452H10.0451H10.0449H10.0448H10.0447H10.0446H10.0445H10.0444H10.0442H10.0441H10.044H10.0439H10.0438H10.0437H10.0435H10.0434H10.0433H10.0432H10.0431H10.043H10.0428H10.0427H10.0426H10.0425H10.0424H10.0423H10.0421H10.042H10.0419H10.0418H10.0417H10.0416H10.0414H10.0413H10.0412H10.0411H10.041H10.0408H10.0407H10.0406H10.0405H10.0404H10.0403H10.0401H10.04H10.0399H10.0398H10.0397H10.0395H10.0394H10.0393H10.0392H10.0391H10.0389H10.0388H10.0387H10.0386H10.0385H10.0383H10.0382H10.0381H10.038H10.0379H10.0377H10.0376H10.0375H10.0374H10.0373H10.0371H10.037H10.0369H10.0368H10.0367H10.0365H10.0364H10.0363H10.0362H10.0361H10.0359H10.0358H10.0357H10.0356H10.0354H10.0353H10.0352H10.0351H10.035H10.0348H10.0347H10.0346H10.0345H10.0344H10.0342H10.0341H10.034H10.0339H10.0338H10.0336H10.0335H10.0334H10.0333H10.0331H10.033H10.0329H10.0328H10.0327H10.0325H10.0324H10.0323H10.0322H10.032H10.0319H10.0318H10.0317H10.0316H10.0314H10.0313H10.0312H10.0311H10.0309H10.0308H10.0307H10.0306H10.0305H10.0303H10.0302H10.0301H10.03H10.0299H10.0297H10.0296H10.0295H10.0294H10.0292H10.0291H10.029H10.0289H10.0288H10.0286H10.0285H10.0284H10.0283H10.0281H10.028H10.0279H10.0278H10.0277H10.0275H10.0274H10.0273H10.0272H10.027H10.0269H10.0268H10.0267H10.0266H10.0264H10.0263H10.0262H10.0261H10.0259H10.0258H10.0257H10.0256H10.0255H10.0253H10.0252H10.0251H10.025H10.0249H10.0247H10.0246H10.0245H10.0244H10.0242H10.0241H10.024H10.0239H10.0238H10.0236H10.0235H10.0234H10.0233H10.0232H10.023H10.0229H10.0228H10.0227H10.0225H10.0224H10.0223H10.0222H10.0221H10.0219H10.0218H10.0217H10.0216H10.0215H10.0213H10.0212H10.0211H10.021H10.0209H10.0207H10.0206H10.0205H10.0204H10.0203H10.0201H10.02H10.0199H10.0198H10.0197H10.0195H10.0194H10.0193H10.0192H10.0191H10.0189H10.0188H10.0187H10.0186H10.0185H10.0183H10.0182H10.0181H10.018H10.0179H10.0177H10.0176H10.0175H10.0174H10.0173H10.0171H10.017H10.0169H10.0168H10.0167H10.0166H10.0164H10.0163H10.0162H10.0161H10.016H10.0158H10.0157H10.0156H10.0155H10.0154H10.0153H10.0151H10.015H10.0149H10.0148H10.0147H10.0146H10.0144H10.0143H10.0142H10.0141H10.014H10.0139H10.0137H10.0136H10.0135H10.0134H10.0133H10.0132H10.0131H10.0129H10.0128H10.0127H10.0126H10.0125H10.0124H10.0122H10.0121H10.012H10.0119H10.0118H10.0117H10.0116H10.0114H10.0113H10.0112H10.0111H10.011H10.0109H10.0108H10.0106H10.0105H10.0104H10.0103H10.0102H10.0101H10.01H10.0099H10.0097H10.0096H10.0095H10.0094H10.0093H10.0092H10.0091H10.009H10.0089H10.0087H10.0086H10.0085H10.0084H10.0083H10.0082H10.0081H10.008H10.0079H10.0077H10.0076H10.0075H10.0074H10.0073H10.0072H10.0071H10.007H10.0069H10.0068H10.0067H10.0065H10.0064H10.0063H10.0062H10.0061H10.006H10.0059H10.0058H10.0057H10.0056H10.0055H10.0054H10.0053H10.0051H10.005H10.0049H10.0048H10.0047H10.0046H10.0045H10.0044H10.0043H10.0042H10.0041H10.004H10.0039H10.0038H10.0037H10.0036H10.0035H10.0034H10.0033H10.0031H10.003H10.0029H10.0028H10.0027H10.0026H10.0025H10.0024H10.0023H10.0022H10.0021H10.002H10.0019H10.0018H10.0017H10.0016H10.0015H10.0014H10.0013H10.0012H10.0011H10.001H10.0009H10.0008H10.0007H10.0006H10.0005H10.0004H10.0003H10.0002H10.0001H10H9.99992H9.99983H9.99968H9.99953H9.99939H9.99924H9.99909H9.99894H9.9988H9.99865H9.9985H9.99835H9.9982H9.99806H9.99791H9.99776H9.99761H9.99746H9.99731H9.99716H9.99701H9.99686H9.99671H9.99656H9.99641H9.99626H9.99611H9.99596H9.9958H9.99565H9.9955H9.99535H9.9952H9.99505H9.99489H9.99474H9.99459H9.99444H9.99428H9.99413H9.99398H9.99382H9.99367H9.99352H9.99336H9.99321H9.99305H9.9929H9.99274H9.99259H9.99244H9.99228H9.99213H9.99197H9.99181H9.99166H9.9915H9.99135H9.99119H9.99103H9.99088H9.99072H9.99057H9.99041H9.99025H9.99009H9.98994H9.98978H9.98962H9.98946H9.98931H9.98915H9.98899H9.98883H9.98867H9.98852H9.98836H9.9882H9.98804H9.98788H9.98772H9.98756H9.9874H9.98724H9.98708H9.98692H9.98676H9.9866H9.98644H9.98628H9.98612H9.98596H9.9858H9.98564H9.98548H9.98532H9.98516H9.985H9.98484H9.98467H9.98451H9.98435H9.98419H9.98403H9.98387H9.9837H9.98354H9.98338H9.98322H9.98305H9.98289H9.98273H9.98256H9.9824H9.98224H9.98207H9.98191H9.98175H9.98158H9.98142H9.98126H9.98109H9.98093H9.98076H9.9806H9.98044H9.98027H9.98011H9.97994H9.97978H9.97961H9.97945H9.97928H9.97912H9.97895H9.97879H9.97862H9.97846H9.97829H9.97813H9.97796H9.97779H9.97763H9.97746H9.9773H9.97713H9.97696H9.9768H9.97663H9.97646H9.9763H9.97613H9.97597H9.9758H9.97563H9.97546H9.9753H9.97513H9.97496H9.9748H9.97463H9.97446H9.97429H9.97413H9.97396H9.97379H9.97362H9.97346H9.97329H9.97312H9.97295H9.97278H9.97262H9.97245H9.97228H9.97211H9.97194H9.97177H9.97161H9.97144H9.97127H9.9711H9.97093H9.97076H9.97059H9.97042H9.97026H9.97009H9.96992H9.96975H9.96958H9.96941H9.96924H9.96907H9.9689H9.96873H9.96856H9.96839H9.96822H9.96805H9.96789H9.96772H9.96755H9.96738H9.96721H9.96704H9.96687H9.9667H9.96653H9.96636H9.96619H9.96602H9.96585H9.96568H9.96551H9.96534H9.96517H9.965H9.96483H9.96466H9.96449H9.96431H9.96414H9.96397H9.9638H9.96363H9.96346H9.96329H9.96312H9.96295H9.96278H9.96261H9.96244H9.96227H9.9621H9.96193H9.96176H9.96159H9.96142H9.96124H9.96107H9.9609H9.96073H9.96056H9.96039H9.96022H9.96005H9.95988H9.95971H9.95954H9.95937H9.9592H9.95902H9.95885H9.95868H9.95851H9.95834H9.95817H9.958H9.95783H9.95766H9.95749H9.95732H9.95715H9.95697H9.9568H9.95663H9.95646H9.95629H9.95612H9.95595H9.95578H9.95561H9.95544H9.95527H9.9551H9.95493H9.95475H9.95458H9.95441H9.95424H9.95407H9.9539H9.95373H9.95356H9.95339H9.95322H9.95305H9.95288H9.95271H9.95254H9.95237H9.9522H9.95203H9.95186H9.95169H9.95151H9.95134H9.95117H9.951H9.95083H9.95066H9.95049H9.95032H9.95015H9.94998H9.94981H9.94964H9.94947H9.9493H9.94913H9.94896H9.94879H9.94863H9.94846H9.94829H9.94812H9.94795H9.94778H9.94761H9.94744H9.94727H9.9471H9.94693H9.94676H9.94659H9.94642H9.94625H9.94609H9.94592H9.94575H9.94558H9.94541H9.94524H9.94507H9.9449H9.94474H9.94457H9.9444H9.94423H9.94406H9.94389H9.94373H9.94356H9.94339H9.94322H9.94305H9.94289H9.94272H9.94255H9.94238H9.94221H9.94205H9.94188H9.94171H9.94154H9.94138H9.94121H9.94104H9.94088H9.94071H9.94054H9.94038H9.94021H9.94004H9.93988H9.93971H9.93954H9.93938H9.93921H9.93904H9.93888H9.93871H9.93855H9.93838H9.93821H9.93805H9.93788H9.93772H9.93755H9.93739H9.93722H9.93706H9.93689H9.93673H9.93656H9.9364H9.93623H9.93607H9.9359H9.93574H9.93558H9.93541H9.93525H9.93508H9.93492H9.93476H9.93459H9.93443H9.93427H9.9341H9.93394H9.93378H9.93361H9.93345H9.93329H9.93313H9.93296H9.9328H9.93264H9.93248H9.93231H9.93215H9.93199H9.93183H9.93167H9.9315H9.93134H9.93118H9.93102H9.93086H9.9307H9.93054H9.93038H9.93022H9.93006H9.9299H9.92974H9.92958H9.92942H9.92926H9.9291H9.92894H9.92878H9.92862H9.92846H9.9283H9.92814H9.92798H9.92782H9.92767H9.92751H9.92735H9.92719H9.92703H9.92688H9.92672H9.92656H9.9264H9.92625H9.92609H9.92593H9.92578H9.92562H9.92546H9.92531H9.92515H9.92499H9.92484H9.92468H9.92453H9.92437H9.92422H9.92406H9.924C8.93598 8.13193 8.16648 7.33505 8.16648 6.33594C8.16648 5.32439 8.98828 4.5026 9.99983 4.5026C11.0109 4.5026 11.8324 5.32362 11.8332 6.33451C11.8256 7.33566 11.0544 8.13196 10.0674 8.16927H10.0674H10.0673H10.0673H10.0672H10.0672H10.0671H10.0671H10.0671H10.067H10.067H10.0669H10.0669H10.0669H10.0668H10.0668H10.0667H10.0667H10.0666H10.0666H10.0666H10.0665H10.0665H10.0664H10.0664H10.0663H10.0663H10.0663H10.0662H10.0662H10.0661H10.0661H10.066H10.066H10.0659H10.0659H10.0659H10.0658H10.0658H10.0657H10.0657H10.0656H10.0656H10.0656H10.0655H10.0655H10.0654H10.0654H10.0653H10.0653H10.0652H10.0652H10.0652H10.0651H10.0651H10.065H10.065H10.0649H10.0649H10.0648H10.0648H10.0647H10.0647H10.0647H10.0646H10.0646H10.0645H10.0645H10.0644H10.0644H10.0643H10.0643H10.0642H10.0642H10.0642H10.0641H10.0641H10.064H10.064H10.0639H10.0639H10.0638H10.0638H10.0637H10.0637H10.0636H10.0636H10.0635H10.0635H10.0635H10.0634H10.0634H10.0633H10.0633H10.0632H10.0632H10.0631H10.0631H10.063H10.063H10.0629H10.0629H10.0628H10.0628H10.0628H10.0627H10.0627H10.0626H10.0626H10.0625H10.0625H10.0624H10.0624H10.0623H10.0623H10.0622H10.0622H10.0621H10.0621H10.062H10.062H10.0619H10.0619H10.0619H10.0618H10.0618H10.0617H10.0617H10.0616H10.0616H10.0615H10.0615H10.0614H10.0614H10.0613H10.0613H10.0612H10.0612H10.0611H10.0611H10.061H10.061H10.0609H10.0609H10.0608H10.0608H10.0607H10.0607H10.0606H10.0606H10.0606H10.0605H10.0605H10.0604H10.0604H10.0603H10.0603H10.0602H10.0602H10.0601H10.0601H10.06H10.06H10.0599H10.0599H10.0598H10.0598H10.0597H10.0597H10.0596H10.0596H10.0595H10.0595H10.0594H10.0594H10.0593H10.0593H10.0592H10.0592H10.0591H10.0591H10.059H10.059H10.0589H10.0589H10.0588H10.0588H10.0588H10.0587H10.0587H10.0586H10.0586H10.0585H10.0585H10.0584H10.0584H10.0583H10.0583H10.0582H10.0582Z" fill="#013D25" stroke="#013D25" strokeWidth="0.833333"/>
<path d="M10 13.9984C9.11804 13.9984 8.25154 13.7655 7.58902 13.3264C6.97891 12.9195 6.66667 12.3634 6.66667 11.8151C6.66667 11.2629 6.97438 10.7004 7.58758 10.2964L7.58758 10.2964L7.58857 10.2957C8.25022 9.8571 9.11654 9.6276 9.99895 9.6276C10.8814 9.6276 11.7452 9.85713 12.4022 10.2951C13.0118 10.7015 13.325 11.2658 13.325 11.8068C13.325 12.3571 13.019 12.9131 12.4012 13.3274L12.4012 13.3274L12.3986 13.3292C11.7487 13.7722 10.8854 13.9984 10 13.9984ZM7.81822 10.6438L7.81822 10.6438L7.817 10.6447C7.39928 10.9264 7.08333 11.3293 7.08333 11.8151C7.08333 12.3044 7.41205 12.706 7.81323 12.983L7.81321 12.983L7.81822 12.9864C8.4315 13.3968 9.22588 13.588 9.99583 13.588C10.7658 13.588 11.5602 13.3968 12.1734 12.9864L12.1747 12.9856C12.5818 12.7109 12.9198 12.3069 12.9083 11.8092C12.9057 11.3225 12.578 10.9231 12.1784 10.6472L12.1784 10.6472L12.1747 10.6447C11.5647 10.2332 10.7695 10.0422 9.99895 10.0422C9.22828 10.0422 8.43171 10.2332 7.81822 10.6438Z" fill="#013D25" stroke="#013D25" strokeWidth="0.833333"/>
</svg>
