<svg width="20" height="21" viewBox="0 0 20 21" fill="none" xmlns="http://www.w3.org/2000/svg">
<path d="M8.79444 2.69751L8.79444 2.69752C9.16481 2.48731 9.58557 2.37655 10.0001 2.37655C10.4146 2.37655 10.8354 2.48731 11.2058 2.69752L11.2085 2.69905L11.2085 2.69906L16.1585 5.55738L16.1595 5.55795C16.9041 5.99065 17.3668 6.79435 17.3668 7.65156V13.3515C17.3668 14.218 16.9033 15.0129 16.1595 15.4451L16.1585 15.4457L11.2094 18.3035C11.2091 18.3036 11.2088 18.3038 11.2085 18.304L11.2085 18.304L11.0001 17.9432C10.3834 18.3015 9.61678 18.3015 9.00011 17.9432L8.79444 2.69751ZM8.79444 2.69751L8.79175 2.69906L3.84175 5.55738L3.84077 5.55795C3.09696 5.99016 2.63344 6.78506 2.63344 7.65156V13.3515C2.63344 14.2087 3.09613 15.0124 3.84077 15.4451L3.84175 15.4457L8.79077 18.3035L8.79444 2.69751ZM8.58506 18.6666L8.58347 18.6657L3.63506 15.8083C3.6348 15.8081 3.63454 15.808 3.63428 15.8078C2.76116 15.2982 2.21678 14.3596 2.21678 13.3515V7.65156C2.21678 6.64353 2.76117 5.70492 3.6343 5.19524C3.63455 5.19509 3.63481 5.19494 3.63506 5.1948L8.58347 2.33739L8.58347 2.3374L8.58506 2.33647C9.45479 1.82913 10.5367 1.82825 11.4165 2.33722L11.4168 2.33739L16.3652 5.1948C16.3654 5.19494 16.3657 5.19509 16.3659 5.19523C17.239 5.70491 17.7834 6.64352 17.7834 7.65156V13.3515C17.7834 14.3596 17.2391 15.2982 16.3659 15.8078C16.3657 15.808 16.3654 15.8081 16.3652 15.8083L11.4167 18.6657L11.4152 18.6666C10.9825 18.919 10.489 19.0432 10.0001 19.0432C9.5112 19.0432 9.01768 18.919 8.58506 18.6666Z" fill="#013D25" stroke="#013D25" strokeWidth="0.833333"/>
<path d="M9.99996 9.87289C8.81341 9.87289 7.84996 8.90943 7.84996 7.72288C7.84996 6.53634 8.8134 5.57292 9.99996 5.57292C11.1865 5.57292 12.15 6.53634 12.15 7.72288C12.15 8.90943 11.1865 9.87289 9.99996 9.87289ZM9.99996 5.98958C9.04485 5.98958 8.26662 6.76775 8.26662 7.72288C8.26662 8.67799 9.04483 9.45623 9.99996 9.45623C10.9551 9.45623 11.7333 8.67799 11.7333 7.72288C11.7333 6.76775 10.9551 5.98958 9.99996 5.98958Z" fill="#013D25" stroke="#013D25" strokeWidth="0.833333"/>
<path d="M13.3334 14.589C13.2218 14.589 13.125 14.4922 13.125 14.3807C13.125 13.6495 12.7375 13.0138 12.1683 12.5739C11.5993 12.1342 10.8309 11.8724 10 11.8724C9.16911 11.8724 8.40073 12.1342 7.83169 12.5739C7.26255 13.0138 6.87502 13.6495 6.87502 14.3807C6.87502 14.4922 6.77824 14.589 6.66669 14.589C6.55514 14.589 6.45835 14.4922 6.45835 14.3807C6.45835 12.8324 7.97801 11.4557 10 11.4557C12.022 11.4557 13.5417 12.8324 13.5417 14.3807C13.5417 14.4922 13.4449 14.589 13.3334 14.589Z" fill="#013D25" stroke="#013D25" strokeWidth="0.833333"/>
</svg>
