<svg width="20" height="21" viewBox="0 0 20 21" fill="none" xmlns="http://www.w3.org/2000/svg">
<path d="M8.69701 11.9303L8.99163 12.2249L9.28626 11.9303L12.8696 8.34697C12.9485 8.26802 13.0847 8.26802 13.1637 8.34697C13.2426 8.42592 13.2426 8.5621 13.1637 8.64105L9.13867 12.666C9.09925 12.7055 9.04654 12.7273 8.99163 12.7273C8.93673 12.7273 8.88401 12.7055 8.8446 12.666L6.82793 10.6494C6.74898 10.5704 6.74898 10.4343 6.82793 10.3553C6.90688 10.2764 7.04306 10.2764 7.12201 10.3553L8.69701 11.9303Z" fill="#013D25" stroke="#013D25" strokeWidth="0.833333"/>
<path d="M7.49608 3.52468L7.49619 3.52481L7.50516 3.51709L8.82117 2.38433C8.82129 2.38422 8.82141 2.38412 8.82153 2.38401C9.48206 1.81818 10.5263 1.81818 11.1868 2.38401C11.1869 2.38412 11.1871 2.38422 11.1872 2.38433L12.5006 3.51488C12.5011 3.51533 12.5017 3.51578 12.5022 3.51623C12.6275 3.62525 12.8015 3.70436 12.9394 3.75388C13.0799 3.8043 13.2593 3.8513 13.4167 3.8513H14.8333C15.8366 3.8513 16.65 4.66475 16.65 5.66797V7.08464C16.65 7.24646 16.7015 7.42887 16.7538 7.56776C16.8059 7.70629 16.887 7.87688 16.9935 7.99919C16.9939 7.99969 16.9943 8.00018 16.9948 8.00068L18.1253 9.31413C18.1254 9.31422 18.1255 9.31431 18.1255 9.3144C18.6914 9.97489 18.6915 11.0191 18.1257 11.6797C18.1256 11.6798 18.1254 11.68 18.1253 11.6801L16.9948 12.9936C16.9943 12.9941 16.9938 12.9947 16.9933 12.9952C16.8869 13.1175 16.8058 13.288 16.7538 13.4265C16.7015 13.5654 16.65 13.7478 16.65 13.9096V15.3263C16.65 16.3295 15.8366 17.143 14.8333 17.143H13.4167C13.2553 17.143 13.0733 17.1943 12.9365 17.2446C12.7983 17.2954 12.6315 17.3727 12.5123 17.4696L12.5121 17.4695L12.5032 17.4772L11.1865 18.6105L11.1865 18.6105L11.1835 18.6131C10.8587 18.8982 10.4343 19.043 10 19.043C9.56555 19.043 9.13935 18.898 8.8132 18.6186C8.81308 18.6185 8.81296 18.6184 8.81283 18.6183L7.49938 17.4877C7.49885 17.4873 7.49832 17.4868 7.49778 17.4863C7.3725 17.3773 7.19851 17.2982 7.06057 17.2487C6.92012 17.1983 6.74068 17.1513 6.58334 17.1513H5.15C4.14679 17.1513 3.33334 16.3378 3.33334 15.3346V13.9096C3.33334 13.7514 3.28591 13.5734 3.23514 13.4344C3.18514 13.2975 3.10635 13.1282 2.99932 13.0047L1.87654 11.6823C1.87646 11.6822 1.87639 11.6821 1.87631 11.682C1.32458 11.0291 1.32457 9.98189 1.87629 9.32893C1.87637 9.32883 1.87646 9.32873 1.87654 9.32863L2.99934 8.00622C3.10636 7.88273 3.18514 7.71342 3.23514 7.57653C3.28591 7.43751 3.33334 7.25952 3.33334 7.1013V5.66797C3.33334 4.66475 4.14679 3.8513 5.15 3.8513H6.59167C6.753 3.8513 6.93507 3.79996 7.07186 3.74968C7.21004 3.6989 7.37682 3.62158 7.49608 3.52468ZM3.3175 8.26287L3.31749 8.26286L3.31571 8.26496L2.19144 9.58911C2.19129 9.58928 2.19114 9.58946 2.19099 9.58963C1.96998 9.84883 1.87292 10.1834 1.87292 10.4971C1.87292 10.8109 1.96999 11.1455 2.19104 11.4047C2.19117 11.4049 2.1913 11.405 2.19144 11.4052L3.31444 12.7278C3.31463 12.728 3.31482 12.7283 3.31502 12.7285C3.56224 13.0229 3.75 13.5282 3.75 13.9013V15.3263C3.75 16.0981 4.37822 16.7263 5.15 16.7263H6.59167C6.97557 16.7263 7.4871 16.9157 7.77766 17.1666L7.77818 17.1671L9.09485 18.3004L9.09614 18.3015C9.3563 18.5236 9.69369 18.6201 10.0083 18.6201C10.323 18.6201 10.6604 18.5236 10.9205 18.3015L10.9218 18.3004L12.2348 17.1702C12.2354 17.1697 12.236 17.1692 12.2365 17.1688C12.5326 16.9207 13.0459 16.7263 13.425 16.7263H14.8417C15.6135 16.7263 16.2417 16.0981 16.2417 15.3263V13.9096C16.2417 13.5257 16.4311 13.0142 16.682 12.7236L16.6825 12.7231L17.8158 11.4065L17.8169 11.4052C18.039 11.145 18.1354 10.8076 18.1354 10.493C18.1354 10.1783 18.039 9.84093 17.8169 9.58077L17.8158 9.57948L16.6825 8.26281L16.682 8.26229C16.4311 7.97173 16.2417 7.4602 16.2417 7.0763V5.66797C16.2417 4.89618 15.6135 4.26797 14.8417 4.26797H13.425C13.0411 4.26797 12.5296 4.07856 12.239 3.82763L12.2385 3.82718L10.9218 2.69384L10.9205 2.69273C10.6604 2.47065 10.323 2.37422 10.0083 2.37422C9.69369 2.37422 9.3563 2.47065 9.09614 2.69273L9.09614 2.69272L9.09371 2.69483L7.77961 3.83427C7.48726 4.07885 6.96714 4.26797 6.59167 4.26797H5.15C4.37822 4.26797 3.75 4.89618 3.75 5.66797V7.09297C3.75 7.4688 3.56041 7.98057 3.3175 8.26287Z" fill="#013D25" stroke="#013D25" strokeWidth="0.833333"/>
</svg>
